<svg xmlns="http://www.w3.org/2000/svg" viewBox="0 0 100 100">
  <!-- Waffle body - rounded rectangle -->
  <rect x="15" y="20" width="70" height="60" rx="8" ry="8" fill="#e8a838"/>

  <!-- Waffle darker edge/depth -->
  <rect x="15" y="70" width="70" height="10" rx="0" ry="0" fill="#c9872a"/>
  <rect x="15" y="75" width="70" height="5" rx="0" ry="8" fill="#c9872a"/>

  <!-- Waffle grid pattern (3x3) -->
  <!-- Row 1 -->
  <rect x="22" y="26" width="16" height="12" rx="2" fill="#d4942f"/>
  <rect x="42" y="26" width="16" height="12" rx="2" fill="#d4942f"/>
  <rect x="62" y="26" width="16" height="12" rx="2" fill="#d4942f"/>

  <!-- Row 2 -->
  <rect x="22" y="42" width="16" height="12" rx="2" fill="#d4942f"/>
  <rect x="42" y="42" width="16" height="12" rx="2" fill="#d4942f"/>
  <rect x="62" y="42" width="16" height="12" rx="2" fill="#d4942f"/>

  <!-- Row 3 -->
  <rect x="22" y="58" width="16" height="12" rx="2" fill="#d4942f"/>
  <rect x="42" y="58" width="16" height="12" rx="2" fill="#d4942f"/>
  <rect x="62" y="58" width="16" height="12" rx="2" fill="#d4942f"/>

  <!-- Cute face -->
  <!-- Eyes -->
  <ellipse cx="38" cy="45" rx="5" ry="6" fill="#3d2314"/>
  <ellipse cx="62" cy="45" rx="5" ry="6" fill="#3d2314"/>

  <!-- Eye shine -->
  <circle cx="36" cy="43" r="2" fill="white"/>
  <circle cx="60" cy="43" r="2" fill="white"/>

  <!-- Happy smile -->
  <path d="M 40 58 Q 50 68 60 58" stroke="#3d2314" stroke-width="3" fill="none" stroke-linecap="round"/>

  <!-- Rosy cheeks -->
  <ellipse cx="28" cy="52" rx="5" ry="3" fill="#f5a0a0" opacity="0.6"/>
  <ellipse cx="72" cy="52" rx="5" ry="3" fill="#f5a0a0" opacity="0.6"/>

  <!-- Little arms waving -->
  <ellipse cx="8" cy="45" rx="6" ry="4" fill="#e8a838" transform="rotate(-30 8 45)"/>
  <ellipse cx="92" cy="45" rx="6" ry="4" fill="#e8a838" transform="rotate(30 92 45)"/>
</svg>
